name analog
datacolumns 19
datarows 46
range 0.1445 0.167
endheader
time	ground_force_vx	ground_force_vy	ground_force_vz	ground_force_px	ground_force_py	ground_force_pz	l_ground_force_vx	l_ground_force_vy	l_ground_force_vz	l_ground_force_px	l_ground_force_py	l_ground_force_pz	ground_torque_x	ground_torque_y	ground_torque_z	l_ground_torque_x	l_ground_torque_y	l_ground_torque_z
0.1445	-0.0	-0.0	-0.0	-0.0	-0.0	-0.0	-0.9322828650474548	-4.5927276611328125	-863.6693725585938	-0.0	-0.0	-0.0	-0.0	-0.0	-0.0	239140.296875	-4377.28759765625	-1826.442138671875
0.145	-0.0	-0.0	-0.0	-0.0	-0.0	-0.0	-0.6761735081672668	-5.409213066101074	-862.4898071289062	-0.0	-0.0	-0.0	-0.0	-0.0	-0.0	238632.9375	-4225.1865234375	-1726.32421875
0.1455	-0.0	-0.0	-0.0	-0.0	-0.0	-0.0	-0.2230617851018905	-6.005874633789063	-862.14013671875	-0.0	-0.0	-0.0	-0.0	-0.0	-0.0	238424.96875	-4258.49072265625	-1692.534423828125
0.146	-0.0	-0.0	-0.0	-0.0	-0.0	-0.0	-0.309037297964096	-6.404766082763672	-858.744140625	-0.0	-0.0	-0.0	-0.0	-0.0	-0.0	238610.671875	-4095.7275390625	-1777.6171875
0.1465	-0.0	-0.0	-0.0	-0.0	-0.0	-0.0	-0.0461057424545288	-6.61177921295166	-858.6964721679688	-0.0	-0.0	-0.0	-0.0	-0.0	-0.0	238364.765625	-3942.60693359375	-1733.496826171875
0.147	-0.0	-0.0	-0.0	-0.0	-0.0	-0.0	-0.2237599045038223	-7.019599914550781	-857.3496704101562	-0.0	-0.0	-0.0	-0.0	-0.0	-0.0	238681.828125	-4121.490234375	-1747.9151611328125
0.1475	-0.0	-0.0	-0.0	-0.0	-0.0	-0.0	-0.0211035683751106	-6.746103286743164	-857.4663696289062	-0.0	-0.0	-0.0	-0.0	-0.0	-0.0	238669.75	-3805.582275390625	-1958.118408203125
0.148	-0.0	-0.0	-0.0	-0.0	-0.0	-0.0	-0.8193506598472595	-6.380023002624512	-856.7672119140625	-0.0	-0.0	-0.0	-0.0	-0.0	-0.0	238715.109375	-3877.52783203125	-2145.020751953125
0.1485	-0.0	-0.0	-0.0	-0.0	-0.0	-0.0	-0.8114967346191406	-6.208602428436279	-854.9902954101562	-0.0	-0.0	-0.0	-0.0	-0.0	-0.0	239430.578125	-3841.58837890625	-2284.491943359375
0.149	-0.0	-0.0	-0.0	-0.0	-0.0	-0.0	-1.126794695854187	-5.64508867263794	-856.0156860351562	-0.0	-0.0	-0.0	-0.0	-0.0	-0.0	239771.015625	-3670.6357421875	-2615.189453125
0.1495	-0.0	-0.0	-0.0	-0.0	-0.0	-0.0	-1.2213459014892578	-4.993306636810303	-852.4130859375	-0.0	-0.0	-0.0	-0.0	-0.0	-0.0	239930.4375	-3699.207763671875	-2646.7333984375
0.15	-0.0	-0.0	-0.0	-0.0	-0.0	-0.0	-1.1052443981170654	-4.151119232177734	-851.0166625976562	-0.0	-0.0	-0.0	-0.0	-0.0	-0.0	240334.90625	-3872.298583984375	-2986.507568359375
0.1505	-0.0	-0.0	-0.0	-0.0	-0.0	-0.0	-0.3206740021705627	-2.5273096561431885	-849.245361328125	-0.0	-0.0	-0.0	-0.0	-0.0	-0.0	240588.9375	-3592.265380859375	-3031.21533203125
0.151	-0.0	-0.0	-0.0	-0.0	-0.0	-0.0	-0.1431942880153656	-1.0939373970031738	-846.1841430664062	-0.0	-0.0	-0.0	-0.0	-0.0	-0.0	240909.125	-3977.26611328125	-3060.447509765625
0.1515	-0.0	-0.0	-0.0	-0.0	-0.0	-0.0	0.4979963600635528	0.0943748950958252	-844.462890625	-0.0	-0.0	-0.0	-0.0	-0.0	-0.0	240948.8125	-4393.2626953125	-3157.502197265625
0.152	-0.0	-0.0	-0.0	-0.0	-0.0	-0.0	1.1589452028274536	1.6239830255508425	-843.5054321289062	-0.0	-0.0	-0.0	-0.0	-0.0	-0.0	241344.921875	-4598.7421875	-3126.879150390625
0.1525	-0.0	-0.0	-0.0	-0.0	-0.0	-0.0	1.4537739753723145	3.641009569168091	-844.733154296875	-0.0	-0.0	-0.0	-0.0	-0.0	-0.0	242194.671875	-4898.9833984375	-2987.4521484375
0.153	-0.0	-0.0	-0.0	-0.0	-0.0	-0.0	1.3306617736816406	4.362053871154785	-844.7908935546875	-0.0	-0.0	-0.0	-0.0	-0.0	-0.0	243475.15625	-5086.2734375	-3219.808837890625
0.1535	-0.0	-0.0	-0.0	-0.0	-0.0	-0.0	1.5129187107086182	4.749781131744385	-844.384521484375	-0.0	-0.0	-0.0	-0.0	-0.0	-0.0	243728.484375	-5254.03515625	-3196.47119140625
0.154	-0.0	-0.0	-0.0	-0.0	-0.0	-0.0	1.0794944763183594	5.461045265197754	-846.13037109375	-0.0	-0.0	-0.0	-0.0	-0.0	-0.0	244167.15625	-5251.7529296875	-3267.44140625
0.1545	-0.0	-0.0	-0.0	-0.0	-0.0	-0.0	0.3007659614086151	5.706428050994873	-844.7340698242188	-0.0	-0.0	-0.0	-0.0	-0.0	-0.0	244456.90625	-5621.490234375	-3523.278076171875
0.155	-0.0	-0.0	-0.0	-0.0	-0.0	-0.0	0.1967488825321197	5.706369876861572	-842.229736328125	-0.0	-0.0	-0.0	-0.0	-0.0	-0.0	244455.09375	-5756.8583984375	-3605.82275390625
0.1555	-0.0	-0.0	-0.0	-0.0	-0.0	-0.0	-0.5707528591156006	5.975031852722168	-840.3322143554688	-0.0	-0.0	-0.0	-0.0	-0.0	-0.0	244849.28125	-5845.25048828125	-3565.0078125
0.156	-0.0	-0.0	-0.0	-0.0	-0.0	-0.0	-1.118431806564331	7.722007274627685	-843.9613037109375	-0.0	-0.0	-0.0	-0.0	-0.0	-0.0	246087.09375	-6211.076171875	-3747.012451171875
0.1565	-0.0	-0.0	-0.0	-0.0	-0.0	-0.0	-2.661323547363281	10.51643180847168	-848.8744506835938	-0.0	-0.0	-0.0	-0.0	-0.0	-0.0	247838.78125	-6342.935546875	-4188.197265625
0.157	-0.0	-0.0	-0.0	-0.0	-0.0	-0.0	-4.080696105957031	12.94853401184082	-854.0361938476562	-0.0	-0.0	-0.0	-0.0	-0.0	-0.0	250032.53125	-6499.2275390625	-4466.24560546875
0.1575	-0.0	-0.0	-0.0	-0.0	-0.0	-0.0	-3.814563751220703	14.26828670501709	-859.611328125	-0.0	-0.0	-0.0	-0.0	-0.0	-0.0	251519.734375	-6705.33349609375	-4348.0048828125
0.158	-0.0	-0.0	-0.0	-0.0	-0.0	-0.0	-2.873785734176636	16.144319534301758	-864.158935546875	-0.0	-0.0	-0.0	-0.0	-0.0	-0.0	253109.578125	-7186.50732421875	-4067.404296875
0.1585	-0.0	-0.0	-0.0	-0.0	-0.0	-0.0	-2.890496253967285	17.524490356445312	-866.8707275390625	-0.0	-0.0	-0.0	-0.0	-0.0	-0.0	254645.609375	-7525.0634765625	-4002.249755859375
0.159	-0.0	-0.0	-0.0	-0.0	-0.0	-0.0	-2.820347785949707	18.67413902282715	-871.2716674804688	-0.0	-0.0	-0.0	-0.0	-0.0	-0.0	255813.296875	-7672.63037109375	-4001.3603515625
0.1595	-0.0	-0.0	-0.0	-0.0	-0.0	-0.0	-2.30791449546814	19.022777557373047	-873.9929809570312	-0.0	-0.0	-0.0	-0.0	-0.0	-0.0	256508.484375	-7689.6318359375	-3733.9990234375
0.16	-0.0	-0.0	-0.0	-0.0	-0.0	-0.0	-1.259057641029358	19.182836532592773	-875.8153076171875	-0.0	-0.0	-0.0	-0.0	-0.0	-0.0	256923.25	-7933.10302734375	-3389.518310546875
0.1605	-0.0	-0.0	-0.0	-0.0	-0.0	-0.0	-0.3375619649887085	18.75937271118164	-874.908935546875	-0.0	-0.0	-0.0	-0.0	-0.0	-0.0	256854.34375	-8068.7314453125	-3092.349609375
0.161	-0.0	-0.0	-0.0	-0.0	-0.0	-0.0	0.6563474535942078	16.974533081054688	-873.4403686523438	-0.0	-0.0	-0.0	-0.0	-0.0	-0.0	256026.765625	-8025.50390625	-2652.96923828125
0.1615	-0.0	-0.0	-0.0	-0.0	-0.0	-0.0	1.1179800033569336	14.590444564819336	-869.038330078125	-0.0	-0.0	-0.0	-0.0	-0.0	-0.0	254347.03125	-8152.4169921875	-2321.08447265625
0.162	-0.0	-0.0	-0.0	-0.0	-0.0	-0.0	1.3838675022125244	12.400384902954102	-862.82373046875	-0.0	-0.0	-0.0	-0.0	-0.0	-0.0	252443.5625	-7906.53662109375	-2096.093994140625
0.1625	-0.0	-0.0	-0.0	-0.0	-0.0	-0.0	1.8448971509933472	10.262789726257324	-854.304931640625	-0.0	-0.0	-0.0	-0.0	-0.0	-0.0	249862.765625	-7709.07275390625	-1823.51416015625
0.163	-0.0	-0.0	-0.0	-0.0	-0.0	-0.0	1.73859441280365	8.002490043640137	-845.576416015625	-0.0	-0.0	-0.0	-0.0	-0.0	-0.0	246997.015625	-7263.3798828125	-1669.599365234375
0.1635	-0.0	-0.0	-0.0	-0.0	-0.0	-0.0	1.261121392250061	6.023183345794678	-834.26708984375	-0.0	-0.0	-0.0	-0.0	-0.0	-0.0	244101.09375	-6908.33154296875	-1652.6474609375
0.164	-0.0	-0.0	-0.0	-0.0	-0.0	-0.0	0.7626592516899109	4.116800308227539	-825.3265991210938	-0.0	-0.0	-0.0	-0.0	-0.0	-0.0	240874.53125	-6135.837890625	-1713.162841796875
0.1645	-0.0	-0.0	-0.0	-0.0	-0.0	-0.0	0.2676892280578613	3.726555109024048	-812.9719848632812	-0.0	-0.0	-0.0	-0.0	-0.0	-0.0	237467.515625	-5712.27001953125	-1689.71337890625
0.165	-0.0	-0.0	-0.0	-0.0	-0.0	-0.0	-0.3360429406166076	3.5498294830322266	-803.2637939453125	-0.0	-0.0	-0.0	-0.0	-0.0	-0.0	234419.78125	-5689.94775390625	-1844.204833984375
0.1655	-0.0	-0.0	-0.0	-0.0	-0.0	-0.0	-0.8152838945388794	3.4277329444885254	-793.9708251953125	-0.0	-0.0	-0.0	-0.0	-0.0	-0.0	231686.65625	-5056.7666015625	-2016.1488037109373
0.166	-0.0	-0.0	-0.0	-0.0	-0.0	-0.0	-2.980196475982666	3.5662612915039062	-786.6385498046875	-0.0	-0.0	-0.0	-0.0	-0.0	-0.0	229338.3125	-4546.4091796875	-2628.472900390625
0.1665	-0.0	-0.0	-0.0	-0.0	-0.0	-0.0	-5.089756011962891	3.991023540496826	-781.1940307617188	-0.0	-0.0	-0.0	-0.0	-0.0	-0.0	227976.5	-4282.31787109375	-3271.2080078125
0.167	-0.0	-0.0	-0.0	-0.0	-0.0	-0.0	-6.492425441741943	4.416084289550781	-778.4010009765625	-0.0	-0.0	-0.0	-0.0	-0.0	-0.0	227198.0625	-4593.22412109375	-3776.35888671875
